<svg xmlns="http://www.w3.org/2000/svg" viewBox="0 0 1690.83 1077.67"><defs><style>.cls-1{fill:none;fill-rule:evenodd;}.cls-1,.cls-4{stroke:red;stroke-miterlimit:10;}.cls-2,.cls-4{fill:#fff;}.cls-3{fill:red;}</style></defs><title>Final Acrylic Tank</title><g id="Layer_1" data-name="Layer 1"><path class="cls-1" d="M1661.5,14.74v213h-7v13h8v412h-8v13h8v199s7-2,7-426S1661.5,14.74,1661.5,14.74Z" transform="translate(-14.17 -13.67)"/><path class="cls-1" d="M1696.5,14.74v213h-7v13h8v412h-8v13h8v199s7-2,7-426S1696.5,14.74,1696.5,14.74Z" transform="translate(-14.17 -13.67)"/><rect class="cls-2" x="0.5" y="1" width="509.24" height="1076.17"/><path class="cls-3" d="M523.41,15.17V1090.34H15.17V15.17H523.41m1-1H14.17V1091.34H524.41V14.17Z" transform="translate(-14.17 -13.67)"/><rect class="cls-2" x="519.24" y="1" width="509.24" height="1076.17"/><path class="cls-3" d="M1042.15,15.17V1090.34H533.91V15.17h508.24m1-1H532.91V1091.34h510.24V14.17Z" transform="translate(-14.17 -13.67)"/><rect class="cls-2" x="1205.22" y="519.74" width="157.74" height="509.24"/><path class="cls-3" d="M1376.64,533.91v508.24H1219.9V533.91h156.74m1-1H1218.9v510.24h158.74V532.91Z" transform="translate(-14.17 -13.67)"/><rect class="cls-2" x="1205.22" y="1" width="157.74" height="509.24"/><path class="cls-3" d="M1376.64,15.17V523.41H1219.9V15.17h156.74m1-1H1218.9V524.41h158.74V14.17Z" transform="translate(-14.17 -13.67)"/><rect class="cls-2" x="1046.48" y="1" width="140.73" height="1076.17"/><path class="cls-3" d="M1200.89,15.17V1090.34H1061.16V15.17h139.73m1-1H1060.16V1091.34h141.73V14.17Z" transform="translate(-14.17 -13.67)"/><rect class="cls-2" x="1084.75" y="312.81" width="7.5" height="13.17"/><path class="cls-3" d="M1105.93,327v12.18h-6.5V327h6.5m1-1h-8.5v14.18h8.5V326Z" transform="translate(-14.17 -13.67)"/><rect class="cls-2" x="1141.44" y="312.81" width="7.5" height="13.17"/><path class="cls-3" d="M1162.62,327v12.18h-6.5V327h6.5m1-1h-8.5v14.18h8.5V326Z" transform="translate(-14.17 -13.67)"/><rect class="cls-2" x="1084.75" y="738.01" width="7.5" height="13.17"/><path class="cls-3" d="M1105.93,752.18v12.17h-6.5V752.18h6.5m1-1h-8.5v14.17h8.5V751.18Z" transform="translate(-14.17 -13.67)"/><rect class="cls-2" x="1141.44" y="738.01" width="7.5" height="13.17"/><path class="cls-3" d="M1162.62,752.18v12.17h-6.5V752.18h6.5m1-1h-8.5v14.17h8.5V751.18Z" transform="translate(-14.17 -13.67)"/><rect class="cls-2" x="1372.11" y="729.22" width="169.08" height="140.73"/><path class="cls-3" d="M1554.86,743.39V883.12H1386.78V743.39h168.08m1-1H1385.78V884.12h170.08V742.39Z" transform="translate(-14.17 -13.67)"/><rect class="cls-2" x="1372.11" y="577.22" width="169.08" height="140.73"/><path class="cls-3" d="M1554.86,591.39V731.12H1386.78V591.39h168.08m1-1H1385.78V732.12h170.08V590.39Z" transform="translate(-14.17 -13.67)"/></g><g id="Layer_2" data-name="Layer 2"><polygon class="cls-4" points="1371.97 0.5 1371.97 567.43 1417.53 567.43 1418.54 398.15 1439.8 398.15 1439.8 567.43 1485.35 567.43 1485.35 0.5 1371.97 0.5"/><polygon class="cls-4" points="1499.53 0.5 1499.53 567.43 1545.08 567.43 1546.1 398.15 1567.36 398.15 1567.36 567.43 1612.91 567.43 1612.91 0.5 1499.53 0.5"/></g></svg>